<svg height="512pt" viewBox="-66 0 512 512" width="512pt" xmlns="http://www.w3.org/2000/svg"><path d="m364.355469 446.699219h-284.289063c-8.621094 0-15.613281-6.988281-15.613281-15.609375v-415.480469c0-8.621094 6.992187-15.609375 15.613281-15.609375h284.289063c8.621093 0 15.609375 6.988281 15.609375 15.609375v415.480469c0 8.621094-6.988282 15.609375-15.609375 15.609375zm0 0" fill="#ff9100"/><path d="m379.964844 15.617188v415.472656c0 8.625-6.992188 15.609375-15.609375 15.609375h-142.144531v-446.6914065h142.144531c8.617187 0 15.609375 6.9804685 15.609375 15.6093755zm0 0" fill="#ff641a"/><path d="m319.609375 75.328125v420.859375c0 8.738281-7.085937 15.8125-15.816406 15.8125h-287.980469c-8.726562 0-15.8125-7.074219-15.8125-15.8125v-420.859375c0-8.742187 7.085938-15.816406 15.8125-15.816406h287.980469c8.730469 0 15.816406 7.074219 15.816406 15.816406zm0 0" fill="#0050c3"/><path d="m319.609375 75.328125v420.859375c0 8.738281-7.085937 15.8125-15.816406 15.8125h-143.988281v-452.488281h143.988281c8.730469 0 15.816406 7.074219 15.816406 15.816406zm0 0" fill="#1b3b6b"/><path d="m80.464844 285.753906 28.925781-31.089844c5.707031-6.132812 5.363281-15.734374-.769531-21.441406-6.132813-5.707031-15.734375-5.363281-21.441406.773438l-38.542969 41.421875c-5.421875 5.824219-5.421875 14.847656 0 20.671875l38.542969 41.425781c5.707031 6.132813 15.308593 6.480469 21.441406.769531 6.132812-5.707031 6.480468-15.304687.769531-21.441406zm0 0" fill="#ff9100"/><path d="m186.273438 248.515625-23.769532 82.847656c-.566406 1.972657-1.496094 3.742188-2.699218 5.25-3.765626 4.75-10.105469 6.878907-16.074219 5.148438-8.050781-2.308594-12.703125-10.710938-10.398438-18.765625l23.773438-82.847656c.5625-1.972657 1.496093-3.742188 2.699219-5.25 3.710937-4.671876 9.992187-6.898438 16.070312-5.148438 8.050781 2.308594 12.714844 10.710938 10.398438 18.765625zm0 0" fill="#ff9100"/><g fill="#ff641a"><path d="m186.273438 248.515625-23.769532 82.847656c-.566406 1.972657-1.496094 3.742188-2.699218 5.25v-101.714843c3.710937-4.671876 9.992187-6.898438 16.070312-5.148438 8.050781 2.308594 12.714844 10.710938 10.398438 18.765625zm0 0"/><path d="m270.972656 296.09375-38.535156 41.417969c-2.996094 3.21875-7.050781 4.835937-11.117188 4.835937-3.703124 0-7.402343-1.34375-10.328124-4.054687-6.140626-5.714844-6.480469-15.316407-.777344-21.445313l28.925781-31.089844-28.925781-31.09375c-5.703125-6.128906-5.363282-15.730468.777344-21.441406 6.128906-5.707031 15.730468-5.363281 21.445312.777344l38.535156 41.417969c5.421875 5.828125 5.421875 14.847656 0 20.675781zm0 0"/></g></svg>