<svg height="512pt" viewBox="0 0 512 512" width="512pt" xmlns="http://www.w3.org/2000/svg"><path d="m512 256c0 141.386719-114.613281 256-256 256s-256-114.613281-256-256 114.613281-256 256-256 256 114.613281 256 256zm0 0" fill="#fe6a16"/><path d="m512 256c0-9.515625-.535156-18.902344-1.546875-28.144531l-100-100-4.488281 4.847656-36.644532-36.640625-21.453124 13.445312-59.585938-59.585937-137.949219 52.414063-50.191406 260.441406 149.132813 149.136718c2.234374.054688 4.476562.085938 6.726562.085938 141.386719 0 256-114.613281 256-256zm0 0" fill="#e53d03"/><path d="m307.800781 427.949219h-103.601562l10.164062-92.488281h83.273438zm0 0" fill="#e9edf5"/><path d="m297.636719 335.460938h-41.636719v92.488281h51.800781zm0 0" fill="#cdd2e1"/><path d="m393.050781 371.167969h-274.101562c-13.964844 0-25.285157-11.320313-25.285157-25.285157v-199.691406c0-13.964844 11.320313-25.289062 25.285157-25.289062h274.101562c13.964844 0 25.285157 11.324218 25.285157 25.289062v199.691406c0 13.964844-11.320313 25.285157-25.285157 25.285157zm0 0" fill="#fff"/><path d="m393.050781 120.902344h-137.050781v250.265625h137.050781c13.964844 0 25.285157-11.320313 25.285157-25.285157v-199.691406c0-13.964844-11.320313-25.289062-25.285157-25.289062zm0 0" fill="#e9edf5"/><path d="m119.074219 150.113281h273.851562v153.363281h-273.851562zm0 0" fill="#87c7ff"/><path d="m256 150.113281h136.925781v153.363281h-136.925781zm0 0" fill="#4a98f7"/><path d="m256 303.261719c-19.753906 0-37.175781-15.746094-49.058594-44.339844-10.140625-24.414063-15.726562-56.550781-15.726562-90.488281s5.585937-66.074219 15.726562-90.488282c11.882813-28.59375 29.304688-44.34375 49.058594-44.34375s37.175781 15.75 49.058594 44.34375c10.140625 24.414063 15.726562 56.550782 15.726562 90.488282s-5.585937 66.074218-15.726562 90.488281c-11.882813 28.59375-29.304688 44.339844-49.058594 44.339844zm0-239.65625c-11.808594 0-34.785156 37-34.785156 104.828125s22.976562 104.832031 34.785156 104.832031 34.785156-37.003906 34.785156-104.832031-22.976562-104.828125-34.785156-104.828125zm0 0" fill="#2864f0"/><path d="m305.058594 77.945312c-11.882813-28.59375-29.304688-44.339843-49.058594-44.339843v30c11.808594 0 34.785156 37 34.785156 104.828125s-22.976562 104.832031-34.785156 104.832031v30c19.753906 0 37.175781-15.75 49.058594-44.34375 10.140625-24.414063 15.726562-56.550781 15.726562-90.488281s-5.585937-66.074219-15.726562-90.488282zm0 0" fill="#27488f"/><path d="m325.621094 257.242188c-4.972656 0-10.242188-.355469-15.785156-1.082032-26.214844-3.421875-56.839844-14.652344-86.230469-31.621094s-54.425781-37.875-70.5-58.863281c-18.820313-24.585937-23.75-47.550781-13.871094-64.65625 9.875-17.109375 32.226563-24.324219 62.929687-20.316406 26.214844 3.425781 56.839844 14.652344 86.230469 31.621094s54.425781 37.875 70.5 58.867187c18.824219 24.585938 23.75 47.546875 13.871094 64.65625-8.09375 14.019532-24.566406 21.394532-47.144531 21.394532zm-139.367188-147.609376c-11.449218 0-18.84375 2.582032-21.039062 6.386719-5.902344 10.222657 14.648437 48.625 73.390625 82.539063 26.050781 15.039062 52.726562 24.933594 75.113281 27.855468 19.175781 2.503907 30.425781-.992187 33.066406-5.566406 2.640625-4.574218.042969-16.0625-11.714844-31.417968-13.726562-17.925782-35.628906-36.082032-61.679687-51.121094-36.894531-21.304688-67.792969-28.675782-87.136719-28.675782zm0 0" fill="#0053bf"/><path d="m358.894531 171.191406c-16.074219-20.992187-41.109375-41.898437-70.5-58.867187-10.726562-6.191407-21.613281-11.609375-32.394531-16.171875v32.894531c5.628906 2.742187 11.429688 5.816406 17.394531 9.261719 26.046875 15.039062 47.953125 33.195312 61.679688 51.121094 11.753906 15.355468 14.351562 26.84375 11.710937 31.417968-2.640625 4.574219-13.890625 8.070313-33.0625 5.566406-17.417968-2.273437-37.429687-8.78125-57.722656-18.632812v32.933594c18.761719 7.941406 37.1875 13.273437 53.835938 15.445312 5.546874.726563 10.8125 1.082032 15.789062 1.082032 22.578125 0 39.046875-7.375 47.140625-21.394532 9.878906-17.109375 4.953125-40.070312-13.871094-64.65625zm0 0" fill="#1b3b6b"/><path d="m186.378906 257.242188c-22.582031 0-39.050781-7.375-47.144531-21.394532-9.878906-17.109375-4.953125-40.070312 13.871094-64.65625 16.074219-20.992187 41.109375-41.898437 70.5-58.867187s60.015625-28.195313 86.230469-31.621094c30.707031-4.007813 53.054687 3.207031 62.929687 20.316406 9.878906 17.105469 4.949219 40.070313-13.871094 64.65625-16.074219 20.988281-41.109375 41.894531-70.5 58.863281s-60.015625 28.199219-86.230469 31.621094c-5.542968.726563-10.8125 1.082032-15.785156 1.082032zm52.226563-118.933594c-26.046875 15.039062-47.953125 33.195312-61.679688 51.121094-11.753906 15.355468-14.351562 26.84375-11.710937 31.417968 2.640625 4.574219 13.886718 8.070313 33.066406 5.566406 22.386719-2.925781 49.0625-12.816406 75.113281-27.855468 58.738281-33.914063 79.292969-72.316406 73.390625-82.542969-2.640625-4.574219-13.890625-8.070313-33.066406-5.5625-22.390625 2.921875-49.066406 12.816406-75.113281 27.855469zm0 0" fill="#4a7aff"/><path d="m372.765625 101.019531c-9.875-17.109375-32.222656-24.324219-62.929687-20.316406-16.648438 2.175781-35.078126 7.507813-53.835938 15.449219v32.933594c20.289062-9.851563 40.304688-16.359376 57.71875-18.632813 19.175781-2.503906 30.425781.992187 33.066406 5.566406 5.902344 10.222657-14.648437 48.625-73.390625 82.539063-5.785156 3.339844-11.601562 6.410156-17.394531 9.222656v32.933594c10.777344-4.5625 21.667969-9.980469 32.394531-16.175782 29.390625-16.964843 54.425781-37.871093 70.496094-58.863281 18.824219-24.585937 23.753906-47.550781 13.875-64.65625zm0 0" fill="#0053bf"/><path d="m268.316406 333.824219c0 6.800781-5.515625 12.316406-12.316406 12.316406s-12.316406-5.515625-12.316406-12.316406c0-6.804688 5.515625-12.316407 12.316406-12.316407s12.316406 5.511719 12.316406 12.316407zm0 0" fill="#cdd2e1"/><path d="m256 321.507812v24.632813c6.804688 0 12.316406-5.515625 12.316406-12.316406s-5.511718-12.316407-12.316406-12.316407zm0 0" fill="#afb4c8"/><path d="m187.398438 407.621094h137.207031v29.476562h-137.207031zm0 0" fill="#fff"/><path d="m256 407.621094h68.601562v29.476562h-68.601562zm0 0" fill="#e9edf5"/></svg>